<mxfile host="app.diagrams.net" modified="2022-02-27T16:14:02.527Z" agent="5.0 (Windows)" etag="tAA3OkuCxfEFhSlHvQrB" version="16.6.4" type="github">
  <diagram id="R2lEEEUBdFMjLlhIrx00" name="Page-1">
    <mxGraphModel dx="2087" dy="852" grid="1" gridSize="10" guides="1" tooltips="1" connect="1" arrows="1" fold="1" page="1" pageScale="1" pageWidth="1200" pageHeight="1600" math="0" shadow="0" extFonts="Permanent Marker^https://fonts.googleapis.com/css?family=Permanent+Marker">
      <root>
        <mxCell id="0" />
        <mxCell id="1" parent="0" />
        <mxCell id="CzM0XpDcJFoaD7P1eEA3-46" style="edgeStyle=orthogonalEdgeStyle;rounded=0;orthogonalLoop=1;jettySize=auto;html=1;exitX=0.75;exitY=1;exitDx=0;exitDy=0;entryX=0.5;entryY=0;entryDx=0;entryDy=0;startArrow=block;startFill=0;endArrow=none;endFill=0;strokeColor=default;" parent="1" source="c41p8q7sOi3APmtSQqrQ-16" target="CzM0XpDcJFoaD7P1eEA3-4" edge="1">
          <mxGeometry relative="1" as="geometry">
            <mxPoint x="963" y="920" as="sourcePoint" />
          </mxGeometry>
        </mxCell>
        <mxCell id="CzM0XpDcJFoaD7P1eEA3-47" style="edgeStyle=orthogonalEdgeStyle;rounded=0;orthogonalLoop=1;jettySize=auto;html=1;exitX=1;exitY=0.5;exitDx=0;exitDy=0;entryX=0;entryY=0.5;entryDx=0;entryDy=0;startArrow=block;startFill=0;endArrow=none;endFill=0;strokeColor=default;" parent="1" source="CzM0XpDcJFoaD7P1eEA3-1" target="CzM0XpDcJFoaD7P1eEA3-2" edge="1">
          <mxGeometry relative="1" as="geometry" />
        </mxCell>
        <mxCell id="CzM0XpDcJFoaD7P1eEA3-51" value="" style="edgeStyle=orthogonalEdgeStyle;rounded=0;orthogonalLoop=1;jettySize=auto;html=1;startArrow=none;startFill=0;endArrow=none;endFill=0;strokeColor=default;entryX=1;entryY=0.5;entryDx=0;entryDy=0;exitX=0;exitY=0.5;exitDx=0;exitDy=0;" parent="1" target="CzM0XpDcJFoaD7P1eEA3-50" edge="1">
          <mxGeometry relative="1" as="geometry">
            <mxPoint x="520" y="650" as="sourcePoint" />
          </mxGeometry>
        </mxCell>
        <mxCell id="CzM0XpDcJFoaD7P1eEA3-1" value="Service Type" style="whiteSpace=wrap;html=1;align=center;" parent="1" vertex="1">
          <mxGeometry x="686" y="750" width="100" height="40" as="geometry" />
        </mxCell>
        <mxCell id="CzM0XpDcJFoaD7P1eEA3-2" value="Mobile Phone" style="whiteSpace=wrap;html=1;align=center;" parent="1" vertex="1">
          <mxGeometry x="886" y="750" width="100" height="40" as="geometry" />
        </mxCell>
        <mxCell id="CzM0XpDcJFoaD7P1eEA3-4" value="Fixed Internet" style="whiteSpace=wrap;html=1;align=center;" parent="1" vertex="1">
          <mxGeometry x="956" y="970" width="100" height="40" as="geometry" />
        </mxCell>
        <mxCell id="CzM0XpDcJFoaD7P1eEA3-49" style="edgeStyle=orthogonalEdgeStyle;rounded=0;orthogonalLoop=1;jettySize=auto;html=1;exitX=0.5;exitY=0;exitDx=0;exitDy=0;entryX=0.25;entryY=1;entryDx=0;entryDy=0;startArrow=none;startFill=0;endArrow=block;endFill=0;strokeColor=default;" parent="1" source="CzM0XpDcJFoaD7P1eEA3-6" target="c41p8q7sOi3APmtSQqrQ-16" edge="1">
          <mxGeometry relative="1" as="geometry">
            <mxPoint x="913" y="930" as="targetPoint" />
          </mxGeometry>
        </mxCell>
        <mxCell id="CzM0XpDcJFoaD7P1eEA3-6" value="Mobile Internet" style="whiteSpace=wrap;html=1;align=center;" parent="1" vertex="1">
          <mxGeometry x="816" y="970" width="100" height="40" as="geometry" />
        </mxCell>
        <mxCell id="CzM0XpDcJFoaD7P1eEA3-54" value="" style="edgeStyle=orthogonalEdgeStyle;rounded=0;orthogonalLoop=1;jettySize=auto;html=1;startArrow=none;startFill=0;endArrow=none;endFill=0;strokeColor=default;exitX=0.25;exitY=1;exitDx=0;exitDy=0;" parent="1" source="CzM0XpDcJFoaD7P1eEA3-23" target="CzM0XpDcJFoaD7P1eEA3-53" edge="1">
          <mxGeometry relative="1" as="geometry" />
        </mxCell>
        <mxCell id="CzM0XpDcJFoaD7P1eEA3-56" value="" style="edgeStyle=orthogonalEdgeStyle;rounded=0;orthogonalLoop=1;jettySize=auto;html=1;startArrow=none;startFill=0;endArrow=none;endFill=0;strokeColor=default;exitX=0.75;exitY=1;exitDx=0;exitDy=0;entryX=0.5;entryY=0;entryDx=0;entryDy=0;" parent="1" source="CzM0XpDcJFoaD7P1eEA3-23" target="CzM0XpDcJFoaD7P1eEA3-57" edge="1">
          <mxGeometry relative="1" as="geometry">
            <mxPoint x="280" y="780" as="targetPoint" />
          </mxGeometry>
        </mxCell>
        <mxCell id="CzM0XpDcJFoaD7P1eEA3-68" value="" style="edgeStyle=orthogonalEdgeStyle;rounded=0;orthogonalLoop=1;jettySize=auto;html=1;startArrow=none;startFill=0;endArrow=none;endFill=0;strokeColor=default;" parent="1" source="CzM0XpDcJFoaD7P1eEA3-23" target="CzM0XpDcJFoaD7P1eEA3-67" edge="1">
          <mxGeometry relative="1" as="geometry" />
        </mxCell>
        <mxCell id="CzM0XpDcJFoaD7P1eEA3-23" value="Service Package" style="whiteSpace=wrap;html=1;align=center;" parent="1" vertex="1">
          <mxGeometry x="190" y="630" width="100" height="40" as="geometry" />
        </mxCell>
        <mxCell id="CzM0XpDcJFoaD7P1eEA3-60" value="" style="edgeStyle=orthogonalEdgeStyle;rounded=0;orthogonalLoop=1;jettySize=auto;html=1;startArrow=none;startFill=0;endArrow=none;endFill=0;strokeColor=default;" parent="1" source="CzM0XpDcJFoaD7P1eEA3-28" target="CzM0XpDcJFoaD7P1eEA3-59" edge="1">
          <mxGeometry relative="1" as="geometry" />
        </mxCell>
        <mxCell id="CzM0XpDcJFoaD7P1eEA3-28" value="Optional Product" style="whiteSpace=wrap;html=1;align=center;" parent="1" vertex="1">
          <mxGeometry x="10" y="770" width="100" height="40" as="geometry" />
        </mxCell>
        <mxCell id="CzM0XpDcJFoaD7P1eEA3-63" value="" style="edgeStyle=orthogonalEdgeStyle;rounded=0;orthogonalLoop=1;jettySize=auto;html=1;startArrow=none;startFill=0;endArrow=none;endFill=0;strokeColor=default;" parent="1" source="CzM0XpDcJFoaD7P1eEA3-29" target="CzM0XpDcJFoaD7P1eEA3-62" edge="1">
          <mxGeometry relative="1" as="geometry" />
        </mxCell>
        <mxCell id="CzM0XpDcJFoaD7P1eEA3-29" value="Validity Period" style="whiteSpace=wrap;html=1;align=center;" parent="1" vertex="1">
          <mxGeometry x="10" y="880" width="100" height="40" as="geometry" />
        </mxCell>
        <mxCell id="CzM0XpDcJFoaD7P1eEA3-71" value="" style="edgeStyle=orthogonalEdgeStyle;rounded=0;orthogonalLoop=1;jettySize=auto;html=1;startArrow=none;startFill=0;endArrow=none;endFill=0;strokeColor=default;" parent="1" source="CzM0XpDcJFoaD7P1eEA3-40" target="CzM0XpDcJFoaD7P1eEA3-70" edge="1">
          <mxGeometry relative="1" as="geometry" />
        </mxCell>
        <mxCell id="CzM0XpDcJFoaD7P1eEA3-40" value="Subscription" style="whiteSpace=wrap;html=1;align=center;" parent="1" vertex="1">
          <mxGeometry x="-170" y="630" width="100" height="40" as="geometry" />
        </mxCell>
        <mxCell id="CzM0XpDcJFoaD7P1eEA3-79" value="" style="edgeStyle=orthogonalEdgeStyle;rounded=0;orthogonalLoop=1;jettySize=auto;html=1;startArrow=none;startFill=0;endArrow=none;endFill=0;strokeColor=default;" parent="1" target="CzM0XpDcJFoaD7P1eEA3-78" edge="1">
          <mxGeometry relative="1" as="geometry">
            <mxPoint x="-170.00000000000023" y="390" as="sourcePoint" />
          </mxGeometry>
        </mxCell>
        <mxCell id="CzM0XpDcJFoaD7P1eEA3-83" value="" style="edgeStyle=orthogonalEdgeStyle;rounded=0;orthogonalLoop=1;jettySize=auto;html=1;startArrow=none;startFill=0;endArrow=none;endFill=0;strokeColor=default;" parent="1" target="CzM0XpDcJFoaD7P1eEA3-82" edge="1">
          <mxGeometry relative="1" as="geometry">
            <mxPoint x="-120.00000000000023" y="415" as="sourcePoint" />
          </mxGeometry>
        </mxCell>
        <mxCell id="CzM0XpDcJFoaD7P1eEA3-42" value="User" style="whiteSpace=wrap;html=1;align=center;" parent="1" vertex="1">
          <mxGeometry x="-560" y="370" width="100" height="40" as="geometry" />
        </mxCell>
        <mxCell id="CzM0XpDcJFoaD7P1eEA3-74" value="" style="edgeStyle=orthogonalEdgeStyle;rounded=0;orthogonalLoop=1;jettySize=auto;html=1;startArrow=none;startFill=0;endArrow=none;endFill=0;strokeColor=default;" parent="1" source="CzM0XpDcJFoaD7P1eEA3-43" target="CzM0XpDcJFoaD7P1eEA3-73" edge="1">
          <mxGeometry relative="1" as="geometry" />
        </mxCell>
        <mxCell id="CzM0XpDcJFoaD7P1eEA3-43" value="Order" style="whiteSpace=wrap;html=1;align=center;" parent="1" vertex="1">
          <mxGeometry x="-560" y="630" width="100" height="40" as="geometry" />
        </mxCell>
        <mxCell id="CzM0XpDcJFoaD7P1eEA3-44" value="Audit" style="whiteSpace=wrap;html=1;align=center;" parent="1" vertex="1">
          <mxGeometry x="-429" y="823" width="100" height="40" as="geometry" />
        </mxCell>
        <mxCell id="CzM0XpDcJFoaD7P1eEA3-45" value="Employee" style="whiteSpace=wrap;html=1;align=center;" parent="1" vertex="1">
          <mxGeometry x="-428" y="995" width="100" height="40" as="geometry" />
        </mxCell>
        <mxCell id="CzM0XpDcJFoaD7P1eEA3-52" value="" style="edgeStyle=orthogonalEdgeStyle;rounded=0;orthogonalLoop=1;jettySize=auto;html=1;startArrow=none;startFill=0;endArrow=none;endFill=0;strokeColor=default;" parent="1" source="CzM0XpDcJFoaD7P1eEA3-50" target="CzM0XpDcJFoaD7P1eEA3-23" edge="1">
          <mxGeometry relative="1" as="geometry" />
        </mxCell>
        <mxCell id="CzM0XpDcJFoaD7P1eEA3-50" value="Includes" style="rhombus;whiteSpace=wrap;html=1;" parent="1" vertex="1">
          <mxGeometry x="370" y="620" width="80" height="60" as="geometry" />
        </mxCell>
        <mxCell id="CzM0XpDcJFoaD7P1eEA3-55" value="" style="edgeStyle=orthogonalEdgeStyle;rounded=0;orthogonalLoop=1;jettySize=auto;html=1;startArrow=none;startFill=0;endArrow=none;endFill=0;strokeColor=default;" parent="1" source="CzM0XpDcJFoaD7P1eEA3-53" target="CzM0XpDcJFoaD7P1eEA3-28" edge="1">
          <mxGeometry relative="1" as="geometry" />
        </mxCell>
        <mxCell id="CzM0XpDcJFoaD7P1eEA3-53" value="Offers" style="rhombus;whiteSpace=wrap;html=1;" parent="1" vertex="1">
          <mxGeometry x="170" y="760" width="90" height="60" as="geometry" />
        </mxCell>
        <mxCell id="CzM0XpDcJFoaD7P1eEA3-58" value="" style="edgeStyle=orthogonalEdgeStyle;rounded=0;orthogonalLoop=1;jettySize=auto;html=1;startArrow=none;startFill=0;endArrow=none;endFill=0;strokeColor=default;" parent="1" source="CzM0XpDcJFoaD7P1eEA3-57" target="CzM0XpDcJFoaD7P1eEA3-29" edge="1">
          <mxGeometry relative="1" as="geometry" />
        </mxCell>
        <mxCell id="CzM0XpDcJFoaD7P1eEA3-57" value="Provides" style="rhombus;whiteSpace=wrap;html=1;" parent="1" vertex="1">
          <mxGeometry x="225" y="870" width="80" height="60" as="geometry" />
        </mxCell>
        <mxCell id="CzM0XpDcJFoaD7P1eEA3-61" value="" style="edgeStyle=orthogonalEdgeStyle;rounded=0;orthogonalLoop=1;jettySize=auto;html=1;startArrow=none;startFill=0;endArrow=none;endFill=0;strokeColor=default;entryX=0.75;entryY=1;entryDx=0;entryDy=0;" parent="1" source="CzM0XpDcJFoaD7P1eEA3-59" target="CzM0XpDcJFoaD7P1eEA3-40" edge="1">
          <mxGeometry relative="1" as="geometry" />
        </mxCell>
        <mxCell id="CzM0XpDcJFoaD7P1eEA3-59" value="Comprehends" style="rhombus;whiteSpace=wrap;html=1;" parent="1" vertex="1">
          <mxGeometry x="-142.5" y="760" width="95" height="60" as="geometry" />
        </mxCell>
        <mxCell id="CzM0XpDcJFoaD7P1eEA3-62" value="Lasts" style="rhombus;whiteSpace=wrap;html=1;" parent="1" vertex="1">
          <mxGeometry x="-185" y="870" width="80" height="60" as="geometry" />
        </mxCell>
        <mxCell id="CzM0XpDcJFoaD7P1eEA3-66" value="" style="edgeStyle=orthogonalEdgeStyle;rounded=0;orthogonalLoop=1;jettySize=auto;html=1;startArrow=none;startFill=0;endArrow=none;endFill=0;strokeColor=default;exitX=0.25;exitY=1;exitDx=0;exitDy=0;entryX=0.5;entryY=0;entryDx=0;entryDy=0;" parent="1" source="CzM0XpDcJFoaD7P1eEA3-40" target="CzM0XpDcJFoaD7P1eEA3-62" edge="1">
          <mxGeometry relative="1" as="geometry">
            <mxPoint x="-120.37" y="670" as="sourcePoint" />
            <mxPoint x="-80" y="830" as="targetPoint" />
          </mxGeometry>
        </mxCell>
        <mxCell id="CzM0XpDcJFoaD7P1eEA3-69" value="" style="edgeStyle=orthogonalEdgeStyle;rounded=0;orthogonalLoop=1;jettySize=auto;html=1;startArrow=none;startFill=0;endArrow=none;endFill=0;strokeColor=default;" parent="1" source="CzM0XpDcJFoaD7P1eEA3-67" target="CzM0XpDcJFoaD7P1eEA3-40" edge="1">
          <mxGeometry relative="1" as="geometry" />
        </mxCell>
        <mxCell id="CzM0XpDcJFoaD7P1eEA3-67" value="Comprises" style="rhombus;whiteSpace=wrap;html=1;" parent="1" vertex="1">
          <mxGeometry x="20" y="620" width="80" height="60" as="geometry" />
        </mxCell>
        <mxCell id="CzM0XpDcJFoaD7P1eEA3-72" value="" style="edgeStyle=orthogonalEdgeStyle;rounded=0;orthogonalLoop=1;jettySize=auto;html=1;startArrow=none;startFill=0;endArrow=none;endFill=0;strokeColor=default;" parent="1" source="CzM0XpDcJFoaD7P1eEA3-70" target="CzM0XpDcJFoaD7P1eEA3-43" edge="1">
          <mxGeometry relative="1" as="geometry" />
        </mxCell>
        <mxCell id="CzM0XpDcJFoaD7P1eEA3-70" value="Contains" style="rhombus;whiteSpace=wrap;html=1;" parent="1" vertex="1">
          <mxGeometry x="-360" y="620" width="80" height="60" as="geometry" />
        </mxCell>
        <mxCell id="CzM0XpDcJFoaD7P1eEA3-75" value="" style="edgeStyle=orthogonalEdgeStyle;rounded=0;orthogonalLoop=1;jettySize=auto;html=1;startArrow=none;startFill=0;endArrow=none;endFill=0;strokeColor=default;" parent="1" source="CzM0XpDcJFoaD7P1eEA3-73" target="CzM0XpDcJFoaD7P1eEA3-42" edge="1">
          <mxGeometry relative="1" as="geometry" />
        </mxCell>
        <mxCell id="CzM0XpDcJFoaD7P1eEA3-73" value="Places" style="rhombus;whiteSpace=wrap;html=1;" parent="1" vertex="1">
          <mxGeometry x="-550" y="490" width="80" height="60" as="geometry" />
        </mxCell>
        <mxCell id="CzM0XpDcJFoaD7P1eEA3-81" value="" style="edgeStyle=orthogonalEdgeStyle;rounded=0;orthogonalLoop=1;jettySize=auto;html=1;startArrow=none;startFill=0;endArrow=none;endFill=0;strokeColor=default;entryX=1;entryY=0.5;entryDx=0;entryDy=0;" parent="1" source="CzM0XpDcJFoaD7P1eEA3-78" target="CzM0XpDcJFoaD7P1eEA3-42" edge="1">
          <mxGeometry relative="1" as="geometry">
            <mxPoint x="-430" y="380" as="targetPoint" />
          </mxGeometry>
        </mxCell>
        <mxCell id="CzM0XpDcJFoaD7P1eEA3-78" value="Owns" style="rhombus;whiteSpace=wrap;html=1;" parent="1" vertex="1">
          <mxGeometry x="-360" y="360" width="80" height="60" as="geometry" />
        </mxCell>
        <mxCell id="CzM0XpDcJFoaD7P1eEA3-84" value="" style="edgeStyle=orthogonalEdgeStyle;rounded=0;orthogonalLoop=1;jettySize=auto;html=1;startArrow=none;startFill=0;endArrow=none;endFill=0;strokeColor=default;" parent="1" source="CzM0XpDcJFoaD7P1eEA3-82" target="CzM0XpDcJFoaD7P1eEA3-40" edge="1">
          <mxGeometry relative="1" as="geometry" />
        </mxCell>
        <mxCell id="CzM0XpDcJFoaD7P1eEA3-82" value="Schedules" style="rhombus;whiteSpace=wrap;html=1;" parent="1" vertex="1">
          <mxGeometry x="-160" y="490" width="80" height="60" as="geometry" />
        </mxCell>
        <mxCell id="c41p8q7sOi3APmtSQqrQ-1" value="" style="endArrow=oval;html=1;rounded=0;startArrow=none;startFill=0;endFill=1;" edge="1" parent="1">
          <mxGeometry width="50" height="50" relative="1" as="geometry">
            <mxPoint x="205" y="630" as="sourcePoint" />
            <mxPoint x="205" y="600" as="targetPoint" />
          </mxGeometry>
        </mxCell>
        <mxCell id="c41p8q7sOi3APmtSQqrQ-2" value="" style="endArrow=oval;html=1;rounded=0;startArrow=none;startFill=0;endFill=0;" edge="1" parent="1">
          <mxGeometry width="50" height="50" relative="1" as="geometry">
            <mxPoint x="240" y="630" as="sourcePoint" />
            <mxPoint x="240" y="600" as="targetPoint" />
          </mxGeometry>
        </mxCell>
        <mxCell id="c41p8q7sOi3APmtSQqrQ-3" value="ID" style="text;html=1;align=center;verticalAlign=middle;resizable=0;points=[];autosize=1;strokeColor=none;fillColor=none;" vertex="1" parent="1">
          <mxGeometry x="190" y="578" width="30" height="20" as="geometry" />
        </mxCell>
        <mxCell id="c41p8q7sOi3APmtSQqrQ-4" value="Name" style="text;html=1;align=center;verticalAlign=middle;resizable=0;points=[];autosize=1;strokeColor=none;fillColor=none;" vertex="1" parent="1">
          <mxGeometry x="215" y="578" width="50" height="20" as="geometry" />
        </mxCell>
        <mxCell id="c41p8q7sOi3APmtSQqrQ-5" value="1" style="text;html=1;align=center;verticalAlign=middle;resizable=0;points=[];autosize=1;strokeColor=none;fillColor=none;" vertex="1" parent="1">
          <mxGeometry x="290" y="630" width="20" height="20" as="geometry" />
        </mxCell>
        <mxCell id="c41p8q7sOi3APmtSQqrQ-6" value="N" style="text;html=1;align=center;verticalAlign=middle;resizable=0;points=[];autosize=1;strokeColor=none;fillColor=none;" vertex="1" parent="1">
          <mxGeometry x="350" y="630" width="20" height="20" as="geometry" />
        </mxCell>
        <mxCell id="c41p8q7sOi3APmtSQqrQ-7" value="" style="endArrow=oval;html=1;rounded=0;startArrow=none;startFill=0;endFill=0;" edge="1" parent="1">
          <mxGeometry width="50" height="50" relative="1" as="geometry">
            <mxPoint x="906" y="750" as="sourcePoint" />
            <mxPoint x="906" y="735" as="targetPoint" />
          </mxGeometry>
        </mxCell>
        <mxCell id="c41p8q7sOi3APmtSQqrQ-8" value="" style="endArrow=oval;html=1;rounded=0;startArrow=none;startFill=0;endFill=0;" edge="1" parent="1">
          <mxGeometry width="50" height="50" relative="1" as="geometry">
            <mxPoint x="966" y="750" as="sourcePoint" />
            <mxPoint x="966" y="735" as="targetPoint" />
          </mxGeometry>
        </mxCell>
        <mxCell id="c41p8q7sOi3APmtSQqrQ-9" value="Minutes_N" style="text;html=1;align=center;verticalAlign=middle;resizable=0;points=[];autosize=1;strokeColor=none;fillColor=none;" vertex="1" parent="1">
          <mxGeometry x="871" y="711" width="70" height="20" as="geometry" />
        </mxCell>
        <mxCell id="c41p8q7sOi3APmtSQqrQ-10" value="SMS_N" style="text;html=1;align=center;verticalAlign=middle;resizable=0;points=[];autosize=1;strokeColor=none;fillColor=none;" vertex="1" parent="1">
          <mxGeometry x="941" y="711" width="50" height="20" as="geometry" />
        </mxCell>
        <mxCell id="c41p8q7sOi3APmtSQqrQ-11" value="" style="endArrow=oval;html=1;rounded=0;startArrow=none;startFill=0;endFill=0;" edge="1" parent="1">
          <mxGeometry width="50" height="50" relative="1" as="geometry">
            <mxPoint x="986" y="762.43" as="sourcePoint" />
            <mxPoint x="1006" y="762.43" as="targetPoint" />
          </mxGeometry>
        </mxCell>
        <mxCell id="c41p8q7sOi3APmtSQqrQ-13" value="" style="endArrow=oval;html=1;rounded=0;startArrow=none;startFill=0;endFill=0;" edge="1" parent="1">
          <mxGeometry width="50" height="50" relative="1" as="geometry">
            <mxPoint x="986" y="781" as="sourcePoint" />
            <mxPoint x="1006" y="781" as="targetPoint" />
          </mxGeometry>
        </mxCell>
        <mxCell id="c41p8q7sOi3APmtSQqrQ-14" value="Minutes_Fee" style="text;html=1;align=center;verticalAlign=middle;resizable=0;points=[];autosize=1;strokeColor=none;fillColor=none;" vertex="1" parent="1">
          <mxGeometry x="1006" y="752" width="80" height="20" as="geometry" />
        </mxCell>
        <mxCell id="c41p8q7sOi3APmtSQqrQ-15" value="SMS_Fee" style="text;html=1;align=center;verticalAlign=middle;resizable=0;points=[];autosize=1;strokeColor=none;fillColor=none;" vertex="1" parent="1">
          <mxGeometry x="1003" y="770" width="70" height="20" as="geometry" />
        </mxCell>
        <mxCell id="c41p8q7sOi3APmtSQqrQ-16" value="Internet" style="whiteSpace=wrap;html=1;align=center;" vertex="1" parent="1">
          <mxGeometry x="886" y="850" width="100" height="40" as="geometry" />
        </mxCell>
        <mxCell id="c41p8q7sOi3APmtSQqrQ-17" style="edgeStyle=orthogonalEdgeStyle;rounded=0;orthogonalLoop=1;jettySize=auto;html=1;exitX=0.5;exitY=1;exitDx=0;exitDy=0;entryX=0;entryY=0.5;entryDx=0;entryDy=0;startArrow=block;startFill=0;endArrow=none;endFill=0;strokeColor=default;" edge="1" parent="1" source="CzM0XpDcJFoaD7P1eEA3-1" target="c41p8q7sOi3APmtSQqrQ-16">
          <mxGeometry relative="1" as="geometry">
            <mxPoint x="736" y="875" as="sourcePoint" />
            <mxPoint x="836" y="840" as="targetPoint" />
          </mxGeometry>
        </mxCell>
        <mxCell id="c41p8q7sOi3APmtSQqrQ-18" value="" style="endArrow=oval;html=1;rounded=0;startArrow=none;startFill=0;endFill=0;" edge="1" parent="1">
          <mxGeometry width="50" height="50" relative="1" as="geometry">
            <mxPoint x="911" y="849" as="sourcePoint" />
            <mxPoint x="911" y="834" as="targetPoint" />
          </mxGeometry>
        </mxCell>
        <mxCell id="c41p8q7sOi3APmtSQqrQ-19" value="" style="endArrow=oval;html=1;rounded=0;startArrow=none;startFill=0;endFill=0;" edge="1" parent="1">
          <mxGeometry width="50" height="50" relative="1" as="geometry">
            <mxPoint x="971" y="849" as="sourcePoint" />
            <mxPoint x="971" y="834" as="targetPoint" />
          </mxGeometry>
        </mxCell>
        <mxCell id="c41p8q7sOi3APmtSQqrQ-20" value="GB_N" style="text;html=1;align=center;verticalAlign=middle;resizable=0;points=[];autosize=1;strokeColor=none;fillColor=none;" vertex="1" parent="1">
          <mxGeometry x="886" y="810" width="50" height="20" as="geometry" />
        </mxCell>
        <mxCell id="c41p8q7sOi3APmtSQqrQ-21" value="GB_Fee" style="text;html=1;align=center;verticalAlign=middle;resizable=0;points=[];autosize=1;strokeColor=none;fillColor=none;" vertex="1" parent="1">
          <mxGeometry x="941" y="810" width="60" height="20" as="geometry" />
        </mxCell>
        <mxCell id="c41p8q7sOi3APmtSQqrQ-22" value="" style="endArrow=oval;html=1;rounded=0;startArrow=none;startFill=0;endFill=1;" edge="1" parent="1">
          <mxGeometry width="50" height="50" relative="1" as="geometry">
            <mxPoint x="736" y="749.5" as="sourcePoint" />
            <mxPoint x="736" y="734.5" as="targetPoint" />
          </mxGeometry>
        </mxCell>
        <mxCell id="c41p8q7sOi3APmtSQqrQ-23" value="ID" style="text;html=1;align=center;verticalAlign=middle;resizable=0;points=[];autosize=1;strokeColor=none;fillColor=none;" vertex="1" parent="1">
          <mxGeometry x="721" y="710.5" width="30" height="20" as="geometry" />
        </mxCell>
        <mxCell id="c41p8q7sOi3APmtSQqrQ-27" value="" style="edgeStyle=orthogonalEdgeStyle;rounded=0;orthogonalLoop=1;jettySize=auto;html=1;startArrow=none;startFill=0;endArrow=none;endFill=0;strokeColor=default;entryX=1;entryY=0.5;entryDx=0;entryDy=0;exitX=0;exitY=0.5;exitDx=0;exitDy=0;" edge="1" parent="1" target="c41p8q7sOi3APmtSQqrQ-29" source="CzM0XpDcJFoaD7P1eEA3-1">
          <mxGeometry relative="1" as="geometry">
            <mxPoint x="650" y="800" as="sourcePoint" />
          </mxGeometry>
        </mxCell>
        <mxCell id="c41p8q7sOi3APmtSQqrQ-28" value="" style="edgeStyle=orthogonalEdgeStyle;rounded=0;orthogonalLoop=1;jettySize=auto;html=1;startArrow=none;startFill=0;endArrow=none;endFill=0;strokeColor=default;entryX=0.5;entryY=1;entryDx=0;entryDy=0;" edge="1" parent="1" source="c41p8q7sOi3APmtSQqrQ-29">
          <mxGeometry relative="1" as="geometry">
            <mxPoint x="570" y="670" as="targetPoint" />
          </mxGeometry>
        </mxCell>
        <mxCell id="c41p8q7sOi3APmtSQqrQ-29" value="Encloses" style="rhombus;whiteSpace=wrap;html=1;" vertex="1" parent="1">
          <mxGeometry x="530" y="740" width="80" height="60" as="geometry" />
        </mxCell>
        <mxCell id="c41p8q7sOi3APmtSQqrQ-32" value="" style="endArrow=oval;html=1;rounded=0;startArrow=none;startFill=0;endFill=0;" edge="1" parent="1">
          <mxGeometry width="50" height="50" relative="1" as="geometry">
            <mxPoint x="605" y="630" as="sourcePoint" />
            <mxPoint x="605" y="615" as="targetPoint" />
          </mxGeometry>
        </mxCell>
        <mxCell id="c41p8q7sOi3APmtSQqrQ-33" value="Fixed_Phone" style="text;html=1;align=center;verticalAlign=middle;resizable=0;points=[];autosize=1;strokeColor=none;fillColor=none;" vertex="1" parent="1">
          <mxGeometry x="570" y="590" width="80" height="20" as="geometry" />
        </mxCell>
        <mxCell id="c41p8q7sOi3APmtSQqrQ-34" value="1" style="text;html=1;align=center;verticalAlign=middle;resizable=0;points=[];autosize=1;strokeColor=none;fillColor=none;" vertex="1" parent="1">
          <mxGeometry x="550" y="670" width="20" height="20" as="geometry" />
        </mxCell>
        <mxCell id="c41p8q7sOi3APmtSQqrQ-35" value="1" style="text;html=1;align=center;verticalAlign=middle;resizable=0;points=[];autosize=1;strokeColor=none;fillColor=none;" vertex="1" parent="1">
          <mxGeometry x="550" y="720" width="20" height="20" as="geometry" />
        </mxCell>
        <mxCell id="c41p8q7sOi3APmtSQqrQ-36" value="1" style="text;html=1;align=center;verticalAlign=middle;resizable=0;points=[];autosize=1;strokeColor=none;fillColor=none;" vertex="1" parent="1">
          <mxGeometry x="610" y="750" width="20" height="20" as="geometry" />
        </mxCell>
        <mxCell id="c41p8q7sOi3APmtSQqrQ-38" value="1" style="text;html=1;align=center;verticalAlign=middle;resizable=0;points=[];autosize=1;strokeColor=none;fillColor=none;" vertex="1" parent="1">
          <mxGeometry x="666" y="750" width="20" height="20" as="geometry" />
        </mxCell>
        <mxCell id="c41p8q7sOi3APmtSQqrQ-41" value="" style="endArrow=oval;html=1;rounded=0;startArrow=none;startFill=0;endFill=1;exitX=0.75;exitY=1;exitDx=0;exitDy=0;" edge="1" parent="1">
          <mxGeometry width="50" height="50" relative="1" as="geometry">
            <mxPoint x="595" y="670" as="sourcePoint" />
            <mxPoint x="595" y="700" as="targetPoint" />
            <Array as="points" />
          </mxGeometry>
        </mxCell>
        <mxCell id="c41p8q7sOi3APmtSQqrQ-42" value="Service" style="rounded=0;whiteSpace=wrap;html=1;labelBorderColor=none;" vertex="1" parent="1">
          <mxGeometry x="520" y="630" width="100" height="40" as="geometry" />
        </mxCell>
        <mxCell id="c41p8q7sOi3APmtSQqrQ-43" value="1" style="text;html=1;align=center;verticalAlign=middle;resizable=0;points=[];autosize=1;strokeColor=none;fillColor=none;" vertex="1" parent="1">
          <mxGeometry x="500" y="630" width="20" height="20" as="geometry" />
        </mxCell>
        <mxCell id="c41p8q7sOi3APmtSQqrQ-45" value="1" style="text;html=1;align=center;verticalAlign=middle;resizable=0;points=[];autosize=1;strokeColor=none;fillColor=none;" vertex="1" parent="1">
          <mxGeometry x="450" y="630" width="20" height="20" as="geometry" />
        </mxCell>
        <mxCell id="c41p8q7sOi3APmtSQqrQ-46" value="ID" style="text;html=1;align=center;verticalAlign=middle;resizable=0;points=[];autosize=1;strokeColor=none;fillColor=none;" vertex="1" parent="1">
          <mxGeometry x="580" y="703" width="30" height="20" as="geometry" />
        </mxCell>
        <mxCell id="c41p8q7sOi3APmtSQqrQ-47" value="1" style="text;html=1;align=center;verticalAlign=middle;resizable=0;points=[];autosize=1;strokeColor=none;fillColor=none;" vertex="1" parent="1">
          <mxGeometry x="265" y="670" width="20" height="20" as="geometry" />
        </mxCell>
        <mxCell id="c41p8q7sOi3APmtSQqrQ-48" value="3" style="text;html=1;align=center;verticalAlign=middle;resizable=0;points=[];autosize=1;strokeColor=none;fillColor=none;" vertex="1" parent="1">
          <mxGeometry x="265" y="850" width="20" height="20" as="geometry" />
        </mxCell>
        <mxCell id="c41p8q7sOi3APmtSQqrQ-49" value="" style="endArrow=oval;html=1;rounded=0;startArrow=none;startFill=0;endFill=0;exitX=0.75;exitY=1;exitDx=0;exitDy=0;" edge="1" parent="1">
          <mxGeometry width="50" height="50" relative="1" as="geometry">
            <mxPoint x="100" y="920" as="sourcePoint" />
            <mxPoint x="100" y="940" as="targetPoint" />
          </mxGeometry>
        </mxCell>
        <mxCell id="c41p8q7sOi3APmtSQqrQ-50" value="Months" style="text;html=1;align=center;verticalAlign=middle;resizable=0;points=[];autosize=1;strokeColor=none;fillColor=none;" vertex="1" parent="1">
          <mxGeometry x="-5" y="940" width="50" height="20" as="geometry" />
        </mxCell>
        <mxCell id="c41p8q7sOi3APmtSQqrQ-51" value="" style="endArrow=oval;html=1;rounded=0;startArrow=none;startFill=0;endFill=0;exitX=0.75;exitY=1;exitDx=0;exitDy=0;" edge="1" parent="1">
          <mxGeometry width="50" height="50" relative="1" as="geometry">
            <mxPoint x="19.83" y="920" as="sourcePoint" />
            <mxPoint x="20" y="940" as="targetPoint" />
          </mxGeometry>
        </mxCell>
        <mxCell id="c41p8q7sOi3APmtSQqrQ-52" value="Monthly_Fee" style="text;html=1;align=center;verticalAlign=middle;resizable=0;points=[];autosize=1;strokeColor=none;fillColor=none;" vertex="1" parent="1">
          <mxGeometry x="60" y="940" width="80" height="20" as="geometry" />
        </mxCell>
        <mxCell id="c41p8q7sOi3APmtSQqrQ-53" value="1" style="text;html=1;align=center;verticalAlign=middle;resizable=0;points=[];autosize=1;strokeColor=none;fillColor=none;" vertex="1" parent="1">
          <mxGeometry x="108" y="880" width="20" height="20" as="geometry" />
        </mxCell>
        <mxCell id="c41p8q7sOi3APmtSQqrQ-54" value="1" style="text;html=1;align=center;verticalAlign=middle;resizable=0;points=[];autosize=1;strokeColor=none;fillColor=none;" vertex="1" parent="1">
          <mxGeometry x="209" y="880" width="20" height="20" as="geometry" />
        </mxCell>
        <mxCell id="c41p8q7sOi3APmtSQqrQ-55" value="1" style="text;html=1;align=center;verticalAlign=middle;resizable=0;points=[];autosize=1;strokeColor=none;fillColor=none;" vertex="1" parent="1">
          <mxGeometry x="-166" y="670" width="20" height="20" as="geometry" />
        </mxCell>
        <mxCell id="c41p8q7sOi3APmtSQqrQ-56" value="1" style="text;html=1;align=center;verticalAlign=middle;resizable=0;points=[];autosize=1;strokeColor=none;fillColor=none;" vertex="1" parent="1">
          <mxGeometry x="-166" y="850" width="20" height="20" as="geometry" />
        </mxCell>
        <mxCell id="c41p8q7sOi3APmtSQqrQ-57" value="1" style="text;html=1;align=center;verticalAlign=middle;resizable=0;points=[];autosize=1;strokeColor=none;fillColor=none;" vertex="1" parent="1">
          <mxGeometry x="-10" y="880" width="20" height="20" as="geometry" />
        </mxCell>
        <mxCell id="c41p8q7sOi3APmtSQqrQ-59" value="N" style="text;html=1;align=center;verticalAlign=middle;resizable=0;points=[];autosize=1;strokeColor=none;fillColor=none;" vertex="1" parent="1">
          <mxGeometry x="-105" y="880" width="20" height="20" as="geometry" />
        </mxCell>
        <mxCell id="c41p8q7sOi3APmtSQqrQ-60" value="0" style="text;html=1;align=center;verticalAlign=middle;resizable=0;points=[];autosize=1;strokeColor=none;fillColor=none;" vertex="1" parent="1">
          <mxGeometry x="195" y="670" width="20" height="20" as="geometry" />
        </mxCell>
        <mxCell id="c41p8q7sOi3APmtSQqrQ-61" value="N" style="text;html=1;align=center;verticalAlign=middle;resizable=0;points=[];autosize=1;strokeColor=none;fillColor=none;" vertex="1" parent="1">
          <mxGeometry x="195" y="740" width="20" height="20" as="geometry" />
        </mxCell>
        <mxCell id="c41p8q7sOi3APmtSQqrQ-62" value="1" style="text;html=1;align=center;verticalAlign=middle;resizable=0;points=[];autosize=1;strokeColor=none;fillColor=none;" vertex="1" parent="1">
          <mxGeometry x="108" y="770" width="20" height="20" as="geometry" />
        </mxCell>
        <mxCell id="c41p8q7sOi3APmtSQqrQ-63" value="N" style="text;html=1;align=center;verticalAlign=middle;resizable=0;points=[];autosize=1;strokeColor=none;fillColor=none;" vertex="1" parent="1">
          <mxGeometry x="159" y="770" width="20" height="20" as="geometry" />
        </mxCell>
        <mxCell id="c41p8q7sOi3APmtSQqrQ-64" value="N" style="text;html=1;align=center;verticalAlign=middle;resizable=0;points=[];autosize=1;strokeColor=none;fillColor=none;" vertex="1" parent="1">
          <mxGeometry x="-95" y="740" width="20" height="20" as="geometry" />
        </mxCell>
        <mxCell id="c41p8q7sOi3APmtSQqrQ-65" value="0" style="text;html=1;align=center;verticalAlign=middle;resizable=0;points=[];autosize=1;strokeColor=none;fillColor=none;" vertex="1" parent="1">
          <mxGeometry x="-10" y="770" width="20" height="20" as="geometry" />
        </mxCell>
        <mxCell id="c41p8q7sOi3APmtSQqrQ-66" value="N" style="text;html=1;align=center;verticalAlign=middle;resizable=0;points=[];autosize=1;strokeColor=none;fillColor=none;" vertex="1" parent="1">
          <mxGeometry x="-55" y="770" width="20" height="20" as="geometry" />
        </mxCell>
        <mxCell id="c41p8q7sOi3APmtSQqrQ-67" value="0" style="text;html=1;align=center;verticalAlign=middle;resizable=0;points=[];autosize=1;strokeColor=none;fillColor=none;" vertex="1" parent="1">
          <mxGeometry x="-95" y="670" width="20" height="20" as="geometry" />
        </mxCell>
        <mxCell id="c41p8q7sOi3APmtSQqrQ-69" value="" style="endArrow=oval;html=1;rounded=0;startArrow=none;startFill=0;endFill=1;" edge="1" parent="1">
          <mxGeometry width="50" height="50" relative="1" as="geometry">
            <mxPoint x="60.00000000000023" y="880" as="sourcePoint" />
            <mxPoint x="60" y="860" as="targetPoint" />
          </mxGeometry>
        </mxCell>
        <mxCell id="c41p8q7sOi3APmtSQqrQ-70" value="ID" style="text;html=1;align=center;verticalAlign=middle;resizable=0;points=[];autosize=1;strokeColor=none;fillColor=none;" vertex="1" parent="1">
          <mxGeometry x="45" y="838" width="30" height="20" as="geometry" />
        </mxCell>
        <mxCell id="c41p8q7sOi3APmtSQqrQ-71" value="" style="endArrow=oval;html=1;rounded=0;startArrow=none;startFill=0;endFill=0;exitX=0.75;exitY=1;exitDx=0;exitDy=0;" edge="1" parent="1">
          <mxGeometry width="50" height="50" relative="1" as="geometry">
            <mxPoint x="100" y="810" as="sourcePoint" />
            <mxPoint x="100" y="820" as="targetPoint" />
          </mxGeometry>
        </mxCell>
        <mxCell id="c41p8q7sOi3APmtSQqrQ-72" value="Monthly_Fee" style="text;html=1;align=center;verticalAlign=middle;resizable=0;points=[];autosize=1;strokeColor=none;fillColor=none;" vertex="1" parent="1">
          <mxGeometry x="60" y="821" width="80" height="20" as="geometry" />
        </mxCell>
        <mxCell id="c41p8q7sOi3APmtSQqrQ-73" value="" style="endArrow=oval;html=1;rounded=0;startArrow=none;startFill=0;endFill=0;exitX=0.75;exitY=1;exitDx=0;exitDy=0;" edge="1" parent="1">
          <mxGeometry width="50" height="50" relative="1" as="geometry">
            <mxPoint x="20" y="810" as="sourcePoint" />
            <mxPoint x="20" y="820" as="targetPoint" />
          </mxGeometry>
        </mxCell>
        <mxCell id="c41p8q7sOi3APmtSQqrQ-74" value="Name" style="text;html=1;align=center;verticalAlign=middle;resizable=0;points=[];autosize=1;strokeColor=none;fillColor=none;" vertex="1" parent="1">
          <mxGeometry x="-5" y="821" width="50" height="20" as="geometry" />
        </mxCell>
        <mxCell id="c41p8q7sOi3APmtSQqrQ-78" value="" style="endArrow=oval;html=1;rounded=0;startArrow=none;startFill=0;endFill=1;" edge="1" parent="1">
          <mxGeometry width="50" height="50" relative="1" as="geometry">
            <mxPoint x="60.00000000000023" y="770" as="sourcePoint" />
            <mxPoint x="60" y="750" as="targetPoint" />
          </mxGeometry>
        </mxCell>
        <mxCell id="c41p8q7sOi3APmtSQqrQ-79" value="ID" style="text;html=1;align=center;verticalAlign=middle;resizable=0;points=[];autosize=1;strokeColor=none;fillColor=none;" vertex="1" parent="1">
          <mxGeometry x="45" y="728" width="30" height="20" as="geometry" />
        </mxCell>
        <mxCell id="c41p8q7sOi3APmtSQqrQ-80" value="1" style="text;html=1;align=center;verticalAlign=middle;resizable=0;points=[];autosize=1;strokeColor=none;fillColor=none;" vertex="1" parent="1">
          <mxGeometry x="-70" y="630" width="20" height="20" as="geometry" />
        </mxCell>
        <mxCell id="c41p8q7sOi3APmtSQqrQ-81" value="1" style="text;html=1;align=center;verticalAlign=middle;resizable=0;points=[];autosize=1;strokeColor=none;fillColor=none;" vertex="1" parent="1">
          <mxGeometry y="630" width="20" height="20" as="geometry" />
        </mxCell>
        <mxCell id="c41p8q7sOi3APmtSQqrQ-82" value="0" style="text;html=1;align=center;verticalAlign=middle;resizable=0;points=[];autosize=1;strokeColor=none;fillColor=none;" vertex="1" parent="1">
          <mxGeometry x="170" y="630" width="20" height="20" as="geometry" />
        </mxCell>
        <mxCell id="c41p8q7sOi3APmtSQqrQ-83" value="N" style="text;html=1;align=center;verticalAlign=middle;resizable=0;points=[];autosize=1;strokeColor=none;fillColor=none;" vertex="1" parent="1">
          <mxGeometry x="93" y="630" width="20" height="20" as="geometry" />
        </mxCell>
        <mxCell id="c41p8q7sOi3APmtSQqrQ-84" value="" style="endArrow=oval;html=1;rounded=0;startArrow=none;startFill=0;endFill=0;" edge="1" parent="1">
          <mxGeometry width="50" height="50" relative="1" as="geometry">
            <mxPoint x="-80" y="629" as="sourcePoint" />
            <mxPoint x="-80" y="610" as="targetPoint" />
          </mxGeometry>
        </mxCell>
        <mxCell id="c41p8q7sOi3APmtSQqrQ-85" value="Date" style="text;html=1;align=center;verticalAlign=middle;resizable=0;points=[];autosize=1;strokeColor=none;fillColor=none;" vertex="1" parent="1">
          <mxGeometry x="-100" y="587" width="40" height="20" as="geometry" />
        </mxCell>
        <mxCell id="c41p8q7sOi3APmtSQqrQ-86" value="" style="endArrow=oval;html=1;rounded=0;startArrow=none;startFill=0;endFill=1;" edge="1" parent="1">
          <mxGeometry width="50" height="50" relative="1" as="geometry">
            <mxPoint x="-469.9999999999998" y="670" as="sourcePoint" />
            <mxPoint x="-470" y="700" as="targetPoint" />
          </mxGeometry>
        </mxCell>
        <mxCell id="c41p8q7sOi3APmtSQqrQ-87" value="ID" style="text;html=1;align=center;verticalAlign=middle;resizable=0;points=[];autosize=1;strokeColor=none;fillColor=none;" vertex="1" parent="1">
          <mxGeometry x="-485" y="703" width="30" height="20" as="geometry" />
        </mxCell>
        <mxCell id="c41p8q7sOi3APmtSQqrQ-88" value="" style="endArrow=oval;html=1;rounded=0;startArrow=none;startFill=0;endFill=1;" edge="1" parent="1">
          <mxGeometry width="50" height="50" relative="1" as="geometry">
            <mxPoint x="-160" y="628" as="sourcePoint" />
            <mxPoint x="-160" y="610" as="targetPoint" />
          </mxGeometry>
        </mxCell>
        <mxCell id="c41p8q7sOi3APmtSQqrQ-89" value="ID" style="text;html=1;align=center;verticalAlign=middle;resizable=0;points=[];autosize=1;strokeColor=none;fillColor=none;" vertex="1" parent="1">
          <mxGeometry x="-176" y="587" width="30" height="20" as="geometry" />
        </mxCell>
        <mxCell id="c41p8q7sOi3APmtSQqrQ-90" value="" style="endArrow=oval;html=1;rounded=0;startArrow=none;startFill=0;endFill=0;" edge="1" parent="1">
          <mxGeometry width="50" height="50" relative="1" as="geometry">
            <mxPoint x="-520" y="670" as="sourcePoint" />
            <mxPoint x="-520" y="699.5" as="targetPoint" />
          </mxGeometry>
        </mxCell>
        <mxCell id="c41p8q7sOi3APmtSQqrQ-91" value="Timestamp" style="text;html=1;align=center;verticalAlign=middle;resizable=0;points=[];autosize=1;strokeColor=none;fillColor=none;" vertex="1" parent="1">
          <mxGeometry x="-555" y="703" width="70" height="20" as="geometry" />
        </mxCell>
        <mxCell id="c41p8q7sOi3APmtSQqrQ-92" value="" style="endArrow=oval;html=1;rounded=0;startArrow=none;startFill=0;endFill=0;" edge="1" parent="1">
          <mxGeometry width="50" height="50" relative="1" as="geometry">
            <mxPoint x="-560" y="660" as="sourcePoint" />
            <mxPoint x="-580" y="660" as="targetPoint" />
          </mxGeometry>
        </mxCell>
        <mxCell id="c41p8q7sOi3APmtSQqrQ-93" value="Status" style="text;html=1;align=center;verticalAlign=middle;resizable=0;points=[];autosize=1;strokeColor=none;fillColor=none;" vertex="1" parent="1">
          <mxGeometry x="-630" y="649" width="50" height="20" as="geometry" />
        </mxCell>
        <mxCell id="c41p8q7sOi3APmtSQqrQ-94" value="" style="endArrow=oval;html=1;rounded=0;startArrow=none;startFill=0;endFill=0;" edge="1" parent="1">
          <mxGeometry width="50" height="50" relative="1" as="geometry">
            <mxPoint x="-560" y="399.96" as="sourcePoint" />
            <mxPoint x="-580" y="399.96" as="targetPoint" />
          </mxGeometry>
        </mxCell>
        <mxCell id="c41p8q7sOi3APmtSQqrQ-95" value="Insolvent" style="text;html=1;align=center;verticalAlign=middle;resizable=0;points=[];autosize=1;strokeColor=none;fillColor=none;" vertex="1" parent="1">
          <mxGeometry x="-645" y="390" width="60" height="20" as="geometry" />
        </mxCell>
        <mxCell id="c41p8q7sOi3APmtSQqrQ-96" value="1" style="text;html=1;align=center;verticalAlign=middle;resizable=0;points=[];autosize=1;strokeColor=none;fillColor=none;" vertex="1" parent="1">
          <mxGeometry x="-460" y="630" width="20" height="20" as="geometry" />
        </mxCell>
        <mxCell id="c41p8q7sOi3APmtSQqrQ-98" value="1" style="text;html=1;align=center;verticalAlign=middle;resizable=0;points=[];autosize=1;strokeColor=none;fillColor=none;" vertex="1" parent="1">
          <mxGeometry x="-380" y="630" width="20" height="20" as="geometry" />
        </mxCell>
        <mxCell id="c41p8q7sOi3APmtSQqrQ-99" value="1" style="text;html=1;align=center;verticalAlign=middle;resizable=0;points=[];autosize=1;strokeColor=none;fillColor=none;" vertex="1" parent="1">
          <mxGeometry x="-283" y="629" width="20" height="20" as="geometry" />
        </mxCell>
        <mxCell id="c41p8q7sOi3APmtSQqrQ-100" value="1" style="text;html=1;align=center;verticalAlign=middle;resizable=0;points=[];autosize=1;strokeColor=none;fillColor=none;" vertex="1" parent="1">
          <mxGeometry x="-190" y="630" width="20" height="20" as="geometry" />
        </mxCell>
        <mxCell id="c41p8q7sOi3APmtSQqrQ-102" value="" style="endArrow=oval;html=1;rounded=0;startArrow=none;startFill=0;endFill=0;" edge="1" parent="1">
          <mxGeometry width="50" height="50" relative="1" as="geometry">
            <mxPoint x="-560" y="640" as="sourcePoint" />
            <mxPoint x="-580" y="640" as="targetPoint" />
          </mxGeometry>
        </mxCell>
        <mxCell id="c41p8q7sOi3APmtSQqrQ-103" value="Total" style="text;html=1;align=center;verticalAlign=middle;resizable=0;points=[];autosize=1;strokeColor=none;fillColor=none;" vertex="1" parent="1">
          <mxGeometry x="-625" y="629" width="40" height="20" as="geometry" />
        </mxCell>
        <mxCell id="c41p8q7sOi3APmtSQqrQ-104" value="0" style="text;html=1;align=center;verticalAlign=middle;resizable=0;points=[];autosize=1;strokeColor=none;fillColor=none;" vertex="1" parent="1">
          <mxGeometry x="-120" y="610" width="20" height="20" as="geometry" />
        </mxCell>
        <mxCell id="c41p8q7sOi3APmtSQqrQ-105" value="1" style="text;html=1;align=center;verticalAlign=middle;resizable=0;points=[];autosize=1;strokeColor=none;fillColor=none;" vertex="1" parent="1">
          <mxGeometry x="-120" y="550" width="20" height="20" as="geometry" />
        </mxCell>
        <mxCell id="c41p8q7sOi3APmtSQqrQ-111" value="1" style="text;html=1;align=center;verticalAlign=middle;resizable=0;points=[];autosize=1;strokeColor=none;fillColor=none;" vertex="1" parent="1">
          <mxGeometry x="-120" y="470" width="20" height="20" as="geometry" />
        </mxCell>
        <mxCell id="c41p8q7sOi3APmtSQqrQ-112" value="1" style="text;html=1;align=center;verticalAlign=middle;resizable=0;points=[];autosize=1;strokeColor=none;fillColor=none;" vertex="1" parent="1">
          <mxGeometry x="-120" y="415" width="20" height="20" as="geometry" />
        </mxCell>
        <mxCell id="c41p8q7sOi3APmtSQqrQ-113" value="0" style="text;html=1;align=center;verticalAlign=middle;resizable=0;points=[];autosize=1;strokeColor=none;fillColor=none;" vertex="1" parent="1">
          <mxGeometry x="-510" y="410" width="20" height="20" as="geometry" />
        </mxCell>
        <mxCell id="c41p8q7sOi3APmtSQqrQ-115" value="N" style="text;html=1;align=center;verticalAlign=middle;resizable=0;points=[];autosize=1;strokeColor=none;fillColor=none;" vertex="1" parent="1">
          <mxGeometry x="-510" y="470" width="20" height="20" as="geometry" />
        </mxCell>
        <mxCell id="c41p8q7sOi3APmtSQqrQ-116" value="1" style="text;html=1;align=center;verticalAlign=middle;resizable=0;points=[];autosize=1;strokeColor=none;fillColor=none;" vertex="1" parent="1">
          <mxGeometry x="-510" y="609" width="20" height="20" as="geometry" />
        </mxCell>
        <mxCell id="c41p8q7sOi3APmtSQqrQ-117" value="1" style="text;html=1;align=center;verticalAlign=middle;resizable=0;points=[];autosize=1;strokeColor=none;fillColor=none;" vertex="1" parent="1">
          <mxGeometry x="-510" y="550" width="20" height="20" as="geometry" />
        </mxCell>
        <mxCell id="c41p8q7sOi3APmtSQqrQ-118" value="0" style="text;html=1;align=center;verticalAlign=middle;resizable=0;points=[];autosize=1;strokeColor=none;fillColor=none;" vertex="1" parent="1">
          <mxGeometry x="-460" y="370" width="20" height="20" as="geometry" />
        </mxCell>
        <mxCell id="c41p8q7sOi3APmtSQqrQ-119" value="N" style="text;html=1;align=center;verticalAlign=middle;resizable=0;points=[];autosize=1;strokeColor=none;fillColor=none;" vertex="1" parent="1">
          <mxGeometry x="-380" y="370" width="20" height="20" as="geometry" />
        </mxCell>
        <mxCell id="c41p8q7sOi3APmtSQqrQ-120" value="1" style="text;html=1;align=center;verticalAlign=middle;resizable=0;points=[];autosize=1;strokeColor=none;fillColor=none;" vertex="1" parent="1">
          <mxGeometry x="-190" y="370" width="20" height="20" as="geometry" />
        </mxCell>
        <mxCell id="c41p8q7sOi3APmtSQqrQ-121" value="1" style="text;html=1;align=center;verticalAlign=middle;resizable=0;points=[];autosize=1;strokeColor=none;fillColor=none;" vertex="1" parent="1">
          <mxGeometry x="-280" y="370" width="20" height="20" as="geometry" />
        </mxCell>
        <mxCell id="c41p8q7sOi3APmtSQqrQ-123" value="" style="endArrow=oval;html=1;rounded=0;startArrow=none;startFill=0;endFill=0;" edge="1" parent="1">
          <mxGeometry width="50" height="50" relative="1" as="geometry">
            <mxPoint x="-121.00000000000023" y="365" as="sourcePoint" />
            <mxPoint x="-121.00000000000023" y="346" as="targetPoint" />
          </mxGeometry>
        </mxCell>
        <mxCell id="c41p8q7sOi3APmtSQqrQ-124" value="Deactivation_Date" style="text;html=1;align=center;verticalAlign=middle;resizable=0;points=[];autosize=1;strokeColor=none;fillColor=none;" vertex="1" parent="1">
          <mxGeometry x="-176" y="323" width="110" height="20" as="geometry" />
        </mxCell>
        <mxCell id="c41p8q7sOi3APmtSQqrQ-125" value="" style="endArrow=none;html=1;rounded=0;startArrow=oval;startFill=1;" edge="1" parent="1">
          <mxGeometry width="50" height="50" relative="1" as="geometry">
            <mxPoint x="-60" y="440" as="sourcePoint" />
            <mxPoint x="-200" y="365" as="targetPoint" />
            <Array as="points">
              <mxPoint x="-200" y="440" />
            </Array>
          </mxGeometry>
        </mxCell>
        <mxCell id="c41p8q7sOi3APmtSQqrQ-126" value="Service Activation Schedule" style="shape=ext;double=1;rounded=0;whiteSpace=wrap;html=1;labelBorderColor=none;" vertex="1" parent="1">
          <mxGeometry x="-170" y="365" width="100" height="50" as="geometry" />
        </mxCell>
        <mxCell id="c41p8q7sOi3APmtSQqrQ-127" value="" style="endArrow=oval;html=1;rounded=0;startArrow=none;startFill=0;endFill=0;" edge="1" parent="1">
          <mxGeometry width="50" height="50" relative="1" as="geometry">
            <mxPoint x="-470" y="370" as="sourcePoint" />
            <mxPoint x="-470" y="330" as="targetPoint" />
          </mxGeometry>
        </mxCell>
        <mxCell id="c41p8q7sOi3APmtSQqrQ-128" value="Password" style="text;html=1;align=center;verticalAlign=middle;resizable=0;points=[];autosize=1;strokeColor=none;fillColor=none;" vertex="1" parent="1">
          <mxGeometry x="-505" y="306" width="70" height="20" as="geometry" />
        </mxCell>
        <mxCell id="c41p8q7sOi3APmtSQqrQ-129" value="Username" style="text;html=1;align=center;verticalAlign=middle;resizable=0;points=[];autosize=1;strokeColor=none;fillColor=none;" vertex="1" parent="1">
          <mxGeometry x="-545" y="328" width="70" height="20" as="geometry" />
        </mxCell>
        <mxCell id="c41p8q7sOi3APmtSQqrQ-130" value="" style="endArrow=oval;html=1;rounded=0;startArrow=none;startFill=0;endFill=0;" edge="1" parent="1">
          <mxGeometry width="50" height="50" relative="1" as="geometry">
            <mxPoint x="-510.83" y="370" as="sourcePoint" />
            <mxPoint x="-511" y="350" as="targetPoint" />
          </mxGeometry>
        </mxCell>
        <mxCell id="c41p8q7sOi3APmtSQqrQ-131" value="Mail" style="text;html=1;align=center;verticalAlign=middle;resizable=0;points=[];autosize=1;strokeColor=none;fillColor=none;" vertex="1" parent="1">
          <mxGeometry x="-570" y="306" width="40" height="20" as="geometry" />
        </mxCell>
        <mxCell id="c41p8q7sOi3APmtSQqrQ-132" value="" style="endArrow=oval;html=1;rounded=0;startArrow=none;startFill=0;endFill=0;" edge="1" parent="1">
          <mxGeometry width="50" height="50" relative="1" as="geometry">
            <mxPoint x="-550.17" y="370" as="sourcePoint" />
            <mxPoint x="-550.17" y="330" as="targetPoint" />
          </mxGeometry>
        </mxCell>
        <mxCell id="c41p8q7sOi3APmtSQqrQ-133" value="" style="endArrow=oval;html=1;rounded=0;startArrow=none;startFill=0;endFill=1;" edge="1" parent="1">
          <mxGeometry width="50" height="50" relative="1" as="geometry">
            <mxPoint x="-470.17" y="410" as="sourcePoint" />
            <mxPoint x="-470" y="430" as="targetPoint" />
          </mxGeometry>
        </mxCell>
        <mxCell id="c41p8q7sOi3APmtSQqrQ-134" value="ID" style="text;html=1;align=center;verticalAlign=middle;resizable=0;points=[];autosize=1;strokeColor=none;fillColor=none;" vertex="1" parent="1">
          <mxGeometry x="-485" y="432" width="30" height="20" as="geometry" />
        </mxCell>
        <mxCell id="c41p8q7sOi3APmtSQqrQ-135" value="" style="endArrow=oval;html=1;rounded=0;startArrow=none;startFill=0;endFill=0;" edge="1" parent="1">
          <mxGeometry width="50" height="50" relative="1" as="geometry">
            <mxPoint x="-560" y="379.92" as="sourcePoint" />
            <mxPoint x="-580" y="379.92" as="targetPoint" />
          </mxGeometry>
        </mxCell>
        <mxCell id="c41p8q7sOi3APmtSQqrQ-136" value="Failed_Payments" style="text;html=1;align=center;verticalAlign=middle;resizable=0;points=[];autosize=1;strokeColor=none;fillColor=none;" vertex="1" parent="1">
          <mxGeometry x="-690" y="368" width="110" height="20" as="geometry" />
        </mxCell>
        <mxCell id="c41p8q7sOi3APmtSQqrQ-148" value="Username" style="text;html=1;align=center;verticalAlign=middle;resizable=0;points=[];autosize=1;strokeColor=none;fillColor=none;" vertex="1" parent="1">
          <mxGeometry x="-414" y="780" width="70" height="20" as="geometry" />
        </mxCell>
        <mxCell id="c41p8q7sOi3APmtSQqrQ-149" value="" style="endArrow=oval;html=1;rounded=0;startArrow=none;startFill=0;endFill=0;" edge="1" parent="1">
          <mxGeometry width="50" height="50" relative="1" as="geometry">
            <mxPoint x="-379" y="823" as="sourcePoint" />
            <mxPoint x="-379" y="803" as="targetPoint" />
          </mxGeometry>
        </mxCell>
        <mxCell id="c41p8q7sOi3APmtSQqrQ-150" value="UserID" style="text;html=1;align=center;verticalAlign=middle;resizable=0;points=[];autosize=1;strokeColor=none;fillColor=none;" vertex="1" parent="1">
          <mxGeometry x="-439" y="760" width="50" height="20" as="geometry" />
        </mxCell>
        <mxCell id="c41p8q7sOi3APmtSQqrQ-151" value="" style="endArrow=oval;html=1;rounded=0;startArrow=none;startFill=0;endFill=0;" edge="1" parent="1">
          <mxGeometry width="50" height="50" relative="1" as="geometry">
            <mxPoint x="-414" y="823" as="sourcePoint" />
            <mxPoint x="-414" y="783" as="targetPoint" />
          </mxGeometry>
        </mxCell>
        <mxCell id="c41p8q7sOi3APmtSQqrQ-153" value="" style="endArrow=oval;html=1;rounded=0;startArrow=none;startFill=0;endFill=0;" edge="1" parent="1">
          <mxGeometry width="50" height="50" relative="1" as="geometry">
            <mxPoint x="-344.0000000000001" y="823" as="sourcePoint" />
            <mxPoint x="-344.0000000000001" y="783" as="targetPoint" />
          </mxGeometry>
        </mxCell>
        <mxCell id="c41p8q7sOi3APmtSQqrQ-154" value="Mail" style="text;html=1;align=center;verticalAlign=middle;resizable=0;points=[];autosize=1;strokeColor=none;fillColor=none;" vertex="1" parent="1">
          <mxGeometry x="-366" y="760" width="40" height="20" as="geometry" />
        </mxCell>
        <mxCell id="c41p8q7sOi3APmtSQqrQ-155" value="" style="endArrow=oval;html=1;rounded=0;startArrow=none;startFill=0;endFill=0;" edge="1" parent="1">
          <mxGeometry width="50" height="50" relative="1" as="geometry">
            <mxPoint x="-329" y="840" as="sourcePoint" />
            <mxPoint x="-309" y="840" as="targetPoint" />
          </mxGeometry>
        </mxCell>
        <mxCell id="c41p8q7sOi3APmtSQqrQ-156" value="Amount" style="text;html=1;align=center;verticalAlign=middle;resizable=0;points=[];autosize=1;strokeColor=none;fillColor=none;" vertex="1" parent="1">
          <mxGeometry x="-312" y="830" width="60" height="20" as="geometry" />
        </mxCell>
        <mxCell id="c41p8q7sOi3APmtSQqrQ-157" value="" style="endArrow=oval;html=1;rounded=0;startArrow=none;startFill=0;endFill=0;" edge="1" parent="1">
          <mxGeometry width="50" height="50" relative="1" as="geometry">
            <mxPoint x="-429" y="839.83" as="sourcePoint" />
            <mxPoint x="-459" y="839.83" as="targetPoint" />
          </mxGeometry>
        </mxCell>
        <mxCell id="c41p8q7sOi3APmtSQqrQ-158" value="Timestamp" style="text;html=1;align=center;verticalAlign=middle;resizable=0;points=[];autosize=1;strokeColor=none;fillColor=none;" vertex="1" parent="1">
          <mxGeometry x="-530" y="828" width="70" height="20" as="geometry" />
        </mxCell>
        <mxCell id="c41p8q7sOi3APmtSQqrQ-159" value="" style="endArrow=none;html=1;rounded=0;startArrow=oval;startFill=1;" edge="1" parent="1">
          <mxGeometry width="50" height="50" relative="1" as="geometry">
            <mxPoint x="-442" y="880" as="sourcePoint" />
            <mxPoint x="-402" y="810" as="targetPoint" />
            <Array as="points">
              <mxPoint x="-442" y="810" />
            </Array>
          </mxGeometry>
        </mxCell>
        <mxCell id="c41p8q7sOi3APmtSQqrQ-160" value="" style="endArrow=oval;html=1;rounded=0;startArrow=none;startFill=0;endFill=1;" edge="1" parent="1">
          <mxGeometry width="50" height="50" relative="1" as="geometry">
            <mxPoint x="-378.17" y="995" as="sourcePoint" />
            <mxPoint x="-378.22" y="970" as="targetPoint" />
          </mxGeometry>
        </mxCell>
        <mxCell id="c41p8q7sOi3APmtSQqrQ-161" value="ID" style="text;html=1;align=center;verticalAlign=middle;resizable=0;points=[];autosize=1;strokeColor=none;fillColor=none;" vertex="1" parent="1">
          <mxGeometry x="-393" y="945" width="30" height="20" as="geometry" />
        </mxCell>
        <mxCell id="c41p8q7sOi3APmtSQqrQ-162" value="" style="endArrow=oval;html=1;rounded=0;startArrow=none;startFill=0;endFill=0;exitX=0.75;exitY=1;exitDx=0;exitDy=0;" edge="1" parent="1">
          <mxGeometry width="50" height="50" relative="1" as="geometry">
            <mxPoint x="-428.44" y="1015" as="sourcePoint" />
            <mxPoint x="-448" y="1015" as="targetPoint" />
          </mxGeometry>
        </mxCell>
        <mxCell id="c41p8q7sOi3APmtSQqrQ-163" value="Username" style="text;html=1;align=center;verticalAlign=middle;resizable=0;points=[];autosize=1;strokeColor=none;fillColor=none;" vertex="1" parent="1">
          <mxGeometry x="-308" y="1004" width="70" height="20" as="geometry" />
        </mxCell>
        <mxCell id="c41p8q7sOi3APmtSQqrQ-165" value="" style="endArrow=oval;html=1;rounded=0;startArrow=none;startFill=0;endFill=0;" edge="1" parent="1">
          <mxGeometry width="50" height="50" relative="1" as="geometry">
            <mxPoint x="-328" y="1015" as="sourcePoint" />
            <mxPoint x="-308" y="1015" as="targetPoint" />
          </mxGeometry>
        </mxCell>
        <mxCell id="c41p8q7sOi3APmtSQqrQ-166" value="Password" style="text;html=1;align=center;verticalAlign=middle;resizable=0;points=[];autosize=1;strokeColor=none;fillColor=none;" vertex="1" parent="1">
          <mxGeometry x="-520" y="1004" width="70" height="20" as="geometry" />
        </mxCell>
      </root>
    </mxGraphModel>
  </diagram>
</mxfile>
